<?xml version="1.0" standalone="no"?>
<!DOCTYPE svg PUBLIC "-//W3C//DTD SVG 20010904//EN"
 "http://www.w3.org/TR/2001/REC-SVG-20010904/DTD/svg10.dtd">
<svg version="1.0" xmlns="http://www.w3.org/2000/svg"
 width="373.000000pt" height="373.000000pt" viewBox="0 0 373.000000 373.000000"
 preserveAspectRatio="xMidYMid meet">
<metadata>
Created by potrace 1.11, written by Peter Selinger 2001-2013
</metadata>
<g transform="translate(0.000000,373.000000) scale(0.100000,-0.100000)"
fill="#000000" stroke="none">
<path d="M2864 3714 c3 -9 6 -17 6 -19 0 -2 16 -7 36 -11 24 -4 38 -14 44 -29
5 -14 20 -26 39 -30 16 -3 32 -13 35 -21 3 -8 19 -14 40 -14 19 0 39 -6 43
-13 4 -7 26 -21 47 -31 l39 -18 -24 -19 c-21 -17 -22 -20 -8 -29 9 -5 19 -20
23 -33 3 -13 17 -29 31 -37 23 -12 28 -11 50 10 25 23 33 18 16 -9 -6 -9 0
-23 18 -43 14 -17 26 -33 26 -37 0 -3 10 -20 21 -36 19 -25 24 -27 37 -16 13
11 18 7 33 -21 24 -45 30 -15 10 47 -9 25 -16 56 -16 69 0 13 -7 29 -15 36 -9
7 -14 19 -11 25 2 7 -4 19 -15 28 -18 16 -24 39 -20 80 1 9 -5 20 -13 23 -9 3
-18 25 -22 50 -6 39 -9 44 -27 38 -17 -5 -19 -3 -13 19 14 57 12 57 -211 57
-183 0 -204 -2 -199 -16z"/>
<path d="M3440 3180 c0 -5 5 -10 11 -10 5 0 7 5 4 10 -3 6 -8 10 -11 10 -2 0
-4 -4 -4 -10z"/>
<path d="M1287 3024 c-4 -4 -7 -56 -7 -116 0 -82 -3 -109 -12 -106 -7 3 -15
15 -19 29 -3 13 -11 23 -17 22 -7 -2 -14 9 -18 25 -10 45 -13 52 -24 52 -5 0
-10 -17 -11 -37 0 -21 -6 -54 -12 -73 -10 -28 -17 -34 -36 -32 -16 1 -24 -4
-28 -18 -4 -14 -11 -19 -23 -15 -10 3 -22 1 -25 -6 -6 -8 -10 -7 -16 2 -8 12
-11 11 -19 -1 -5 -8 -10 -24 -10 -35 0 -23 -6 -33 -37 -59 -22 -18 -24 -18
-43 -1 -15 14 -23 15 -33 6 -11 -8 -18 -6 -32 9 -19 21 -45 27 -45 10 0 -15
-38 -50 -55 -50 -8 0 -15 5 -15 10 0 6 -9 10 -19 10 -11 0 -23 -4 -26 -10 -4
-6 5 -10 19 -10 14 0 26 -3 26 -7 0 -5 -23 -30 -52 -58 -68 -66 -74 -92 -38
-147 39 -61 44 -90 19 -116 -14 -16 -32 -22 -64 -22 -25 0 -45 -4 -45 -8 0
-22 34 -120 50 -142 21 -30 43 -96 38 -112 -2 -6 -13 6 -25 28 -26 51 -48 52
-47 1 1 -21 7 -49 14 -63 8 -13 11 -27 7 -30 -3 -4 0 -13 8 -21 8 -8 16 -24
16 -36 1 -12 2 -26 4 -32 1 -5 3 -18 3 -28 1 -10 6 -16 11 -13 10 7 -7 108
-20 116 -10 7 0 50 11 50 5 0 16 -32 24 -71 10 -43 31 -94 55 -132 38 -60 103
-211 135 -310 3 -10 10 -16 14 -13 5 3 7 -5 5 -19 -5 -24 22 -122 38 -139 22
-25 9 -36 -33 -30 -44 7 -61 20 -51 38 4 5 -6 7 -24 3 -17 -3 -34 -3 -38 1 -3
4 -38 12 -77 17 -78 11 -98 29 -46 41 32 7 32 7 11 17 -13 6 -23 16 -23 23 0
8 -6 11 -15 8 -10 -4 -15 0 -15 11 0 11 -7 15 -22 13 -13 -2 -33 8 -51 24 -16
16 -34 25 -40 21 -6 -4 -8 0 -4 10 3 10 3 17 -1 17 -4 0 -27 18 -50 39 -23 22
-42 33 -42 26 0 -8 5 -17 10 -20 16 -10 12 -35 -5 -29 -8 4 -22 1 -30 -6 -8
-7 -21 -10 -29 -7 -8 3 -17 1 -20 -6 -2 -7 -5 -4 -5 6 -1 10 9 22 22 27 16 7
10 8 -23 3 -25 -3 -51 -10 -58 -16 -9 -7 -12 -2 -12 23 l0 33 -61 -7 c-34 -3
-70 -6 -80 -6 -13 0 -17 -5 -13 -17 3 -10 -2 -7 -10 7 l-16 25 -6 -22 c-11
-40 -24 -25 -24 30 -1 38 -3 48 -10 36 -12 -21 -11 43 -16 -866 l-4 -773 290
0 c280 0 290 1 290 19 0 11 -5 23 -11 27 -8 4 -9 -1 -4 -17 3 -13 3 -19 -2
-13 -4 6 -15 13 -24 16 -9 4 -19 21 -23 40 l-7 33 -13 -24 c-15 -26 -30 -14
-20 16 6 15 4 16 -7 6 -7 -7 -21 -13 -30 -13 -9 0 -19 -7 -23 -15 -8 -21 -24
-19 -31 6 -8 24 -32 50 -70 75 -15 9 -33 35 -42 56 -8 21 -21 38 -29 38 -8 0
-14 5 -14 11 0 5 -4 8 -9 4 -5 -3 -12 21 -16 52 -4 32 -10 70 -15 86 -6 18 -5
27 2 27 7 0 9 22 5 63 -6 77 17 174 38 157 10 -8 17 -6 27 9 18 26 68 46 69
28 0 -6 5 -3 10 8 9 19 31 32 82 49 9 3 17 13 17 23 0 21 25 -22 40 -71 8 -27
9 -24 4 18 l-6 48 44 -4 c24 -3 55 -1 70 3 17 5 33 2 45 -7 21 -16 73 -19 73
-4 0 16 27 11 34 -6 3 -9 13 -14 21 -10 9 3 20 -5 29 -22 9 -15 15 -21 16 -14
0 7 10 16 22 21 18 6 29 2 51 -20 16 -16 32 -29 37 -29 5 0 12 -9 15 -20 4
-11 11 -18 16 -15 5 4 9 1 9 -4 0 -6 15 -11 34 -11 19 0 37 -4 40 -9 4 -5 9
-38 13 -72 4 -42 9 -57 13 -44 9 24 23 -119 16 -154 -3 -13 -15 -41 -26 -63
-11 -22 -16 -37 -11 -34 5 4 12 2 15 -3 10 -16 -5 -39 -30 -45 -26 -7 -44 -40
-44 -82 0 -15 -6 -24 -16 -24 -11 0 -14 5 -10 16 6 15 4 15 -10 3 -14 -12 -14
-14 0 -25 20 -14 21 -48 2 -63 -11 -9 -15 -7 -20 11 -3 13 -6 34 -6 48 0 14
-9 59 -20 100 l-20 75 7 -79 c4 -61 3 -77 -7 -71 -9 6 -11 -4 -9 -38 4 -41 2
-44 -16 -37 -11 4 -26 5 -32 3 -7 -3 -13 3 -13 12 0 15 -2 15 -16 4 -14 -11
-18 -10 -30 6 -16 22 -20 20 -29 -23 l-7 -32 86 0 86 0 -5 43 -5 42 11 -42 10
-43 718 0 c703 0 719 0 744 20 14 11 37 20 51 20 15 0 39 8 54 18 88 61 112
73 123 66 8 -5 11 -2 7 8 -4 9 7 26 29 44 19 16 68 62 110 102 41 39 78 72 84
72 5 0 9 6 9 13 0 6 18 25 40 41 21 16 38 32 38 35 -4 18 16 61 28 61 8 0 14
8 14 18 0 9 9 23 20 30 11 7 20 19 20 27 0 8 5 15 10 15 6 0 10 8 10 18 0 17
71 164 91 189 6 6 17 9 25 6 12 -4 14 0 8 21 -4 16 -2 26 5 26 6 0 11 11 11
25 0 17 6 25 18 25 15 0 15 2 2 11 -11 8 -12 12 -2 16 6 2 12 10 12 16 0 7 8
17 18 24 17 10 20 4 36 -81 50 -259 29 -396 -114 -729 l-67 -157 334 0 334 0
-1 485 -1 485 -23 0 c-13 0 -31 9 -40 19 -18 20 -53 18 -69 -3 -6 -8 -10 -7
-14 2 -2 6 -10 12 -17 12 -7 0 -30 44 -51 98 -46 117 -47 119 -125 302 -35 80
-73 179 -86 220 -23 73 -32 180 -16 180 5 0 25 35 46 78 29 62 35 85 30 113
-10 52 -33 91 -50 85 -8 -3 -14 1 -14 9 0 8 -9 19 -20 25 -11 6 -20 18 -20 27
0 14 -2 14 -20 -2 -11 -10 -20 -24 -20 -32 0 -8 -5 -11 -10 -8 -6 4 -8 16 -5
27 10 30 -2 68 -20 62 -10 -4 -15 0 -15 14 0 12 -4 24 -10 27 -5 3 -10 26 -10
51 0 51 -10 56 -28 14 -8 -16 -18 -30 -23 -30 -12 0 -12 27 1 35 6 3 10 12 10
18 0 7 -7 4 -14 -5 -21 -28 -26 -22 -26 33 0 27 -5 82 -12 121 -9 58 -13 68
-23 54 -7 -8 -15 -13 -18 -9 -4 3 -7 -8 -7 -25 0 -17 -4 -34 -10 -37 -5 -3
-10 -17 -10 -31 0 -38 -16 -28 -45 28 -15 29 -34 57 -41 63 -13 10 -33 102
-30 144 1 27 -24 47 -47 38 -12 -5 -13 -13 -7 -44 6 -23 5 -42 0 -47 -7 -7
-10 -4 -10 7 0 10 -5 14 -15 11 -10 -4 -15 0 -15 14 0 26 -37 72 -59 72 -10 0
-28 12 -42 26 -13 14 -44 39 -69 56 -25 17 -58 45 -73 64 -31 37 -47 43 -47
18 0 -11 -5 -14 -17 -9 -10 4 -30 11 -45 15 -15 5 -38 16 -50 24 -30 21 -41
20 -33 -3 3 -10 -1 -24 -10 -31 -8 -7 -15 -19 -15 -26 0 -11 -8 -10 -37 4 -21
9 -41 22 -46 29 -15 24 -73 52 -95 46 -18 -4 -22 -1 -22 18 -1 29 -35 73 -50
64 -7 -4 -2 -18 13 -39 30 -39 19 -52 -43 -49 -25 1 -55 -5 -67 -13 -21 -13
-23 -12 -38 16 -9 17 -24 30 -34 30 -12 0 -24 14 -34 38 l-17 37 6 -35 c3 -19
7 -50 11 -67 3 -18 1 -33 -3 -33 -18 0 -82 26 -98 39 -13 11 -17 11 -22 -3
-11 -28 -31 -18 -70 37 -42 57 -57 48 -30 -17 21 -50 -2 -49 -46 3 -40 48 -74
58 -71 21 3 -39 -5 -54 -21 -41 -7 6 -16 8 -19 4 -4 -3 -7 5 -7 19 0 14 -9 36
-19 49 l-19 24 -7 -37 c-8 -43 -25 -41 -25 2 0 16 -4 31 -9 34 -12 8 -19 -25
-10 -49 11 -29 11 -105 -1 -105 -5 0 -10 8 -10 18 0 9 -5 34 -11 55 -15 55
-32 36 -25 -27 6 -52 -7 -125 -17 -96 -3 8 -8 58 -11 110 -6 89 -14 119 -29
104z m901 -144 c18 -16 28 -30 24 -30 -5 0 -21 14 -37 30 -16 17 -26 30 -23
30 3 0 19 -13 36 -30z m415 -360 c14 -16 27 -21 55 -18 28 2 37 -1 40 -14 2
-10 21 -36 43 -59 21 -22 39 -48 39 -58 0 -9 9 -24 20 -34 11 -9 20 -23 20
-31 0 -8 14 -17 30 -21 17 -4 30 -13 30 -21 0 -16 35 -54 50 -54 6 0 10 -6 10
-14 0 -8 5 -16 10 -18 13 -4 39 -114 35 -148 -2 -14 -4 -47 -4 -73 -1 -34 -4
-46 -13 -41 -8 5 -9 0 -3 -17 13 -38 9 -88 -12 -171 -11 -43 -19 -78 -16 -78
2 0 14 12 27 27 14 16 28 23 35 19 8 -6 0 -19 -29 -46 -37 -34 -40 -41 -36
-76 3 -20 2 -42 -2 -48 -3 -6 -8 -15 -9 -21 -1 -5 -7 -30 -14 -55 -6 -25 -12
-52 -13 -60 -4 -26 -43 -83 -48 -68 -6 17 -34 -10 -40 -38 -3 -14 -11 -18 -32
-16 -20 2 -27 -1 -23 -10 2 -7 10 -12 16 -11 6 2 11 -4 11 -13 0 -10 -6 -14
-15 -11 -21 9 -28 -8 -27 -69 0 -31 -4 -54 -10 -54 -7 0 -7 -4 -1 -12 6 -7 13
-26 17 -43 l7 -30 -19 28 c-13 20 -22 25 -27 17 -5 -8 -10 -9 -18 -1 -16 16
-25 14 -32 -9 -7 -21 -14 -21 -63 -2 -9 3 -10 -2 -3 -21 9 -22 7 -24 -11 -19
-11 3 -23 13 -25 22 -3 10 -17 20 -31 23 -29 6 -122 86 -122 105 0 15 -40 37
-62 33 -12 -1 -16 3 -12 12 4 11 -2 15 -18 15 -13 0 -50 3 -83 6 -33 4 -87 8
-120 10 -68 4 -105 13 -105 27 0 5 10 9 23 9 21 1 21 1 4 14 -11 9 -14 17 -8
20 6 4 8 12 5 19 -2 7 4 22 16 32 24 21 29 75 6 56 -11 -9 -20 -10 -35 -1 -27
14 -116 20 -151 10 -17 -5 -32 -4 -39 3 -15 15 -65 -9 -58 -27 4 -10 0 -12
-14 -9 -16 5 -20 1 -17 -13 2 -16 -2 -19 -32 -16 -19 1 -44 9 -55 16 -19 12
-45 19 -123 33 -22 3 -32 10 -28 19 8 21 -11 26 -49 14 -25 -8 -35 -18 -36
-33 l-2 -22 -4 22 c-3 14 -9 20 -19 16 -8 -3 -22 -2 -31 1 -12 5 -14 9 -5 18
7 7 12 19 12 27 0 8 12 30 26 49 21 27 32 33 54 30 24 -4 31 1 44 30 24 50 12
228 -16 243 -19 10 -19 12 -2 30 16 18 16 19 -6 19 -21 0 -22 3 -16 48 3 26 8
57 10 69 3 13 0 25 -5 28 -5 4 -7 11 -3 16 3 6 -2 19 -12 29 -44 44 -48 51
-33 61 8 5 20 9 28 9 9 0 11 8 7 24 -4 16 0 30 9 40 8 8 15 24 15 35 0 11 5
23 11 26 5 4 15 18 20 32 7 18 14 23 27 18 9 -4 48 -11 86 -16 39 -5 73 -15
78 -21 4 -7 8 -42 8 -78 1 -78 25 -138 69 -169 17 -12 34 -20 39 -17 4 2 45
-9 91 -25 45 -16 100 -29 121 -29 21 0 42 -4 45 -10 10 -17 79 -11 124 11 33
15 47 31 62 65 11 24 24 44 28 44 13 0 61 78 60 97 0 11 -3 13 -6 6 -10 -27
-21 -11 -21 32 0 25 4 45 10 45 6 0 40 14 75 30 35 17 70 30 76 29 29 -5 98
24 117 49 17 21 21 36 17 70 -2 23 0 42 5 42 5 0 6 5 3 11 -4 6 -19 7 -36 4
-23 -5 -31 -3 -36 12 -3 10 -11 21 -17 26 -7 5 -3 14 12 27 26 22 44 17 75
-20z m-313 -40 c0 -6 -11 -8 -27 -4 -40 10 -41 14 -5 14 18 0 32 -5 32 -10z
m-13 -61 c26 -10 27 -12 8 -19 -24 -10 -85 -13 -85 -4 0 8 32 33 42 34 4 0 19
-5 35 -11z m63 -19 c0 -5 -4 -10 -10 -10 -5 0 -10 5 -10 10 0 6 5 10 10 10 6
0 10 -4 10 -10z m-40 -102 c0 -13 -39 -58 -50 -58 -4 0 -2 15 3 33 10 31 47
51 47 25z m-276 -87 c20 -22 11 -31 -24 -24 -20 4 -25 11 -28 40 -1 20 3 42
10 51 11 12 14 10 19 -17 4 -18 14 -40 23 -50z m-1025 -318 l22 -23 -34 0
c-38 0 -77 23 -58 34 6 4 8 12 5 18 -4 6 -2 8 3 5 6 -4 14 1 18 11 6 16 8 15
15 -3 4 -11 18 -30 29 -42z m2239 -82 c3 -8 -1 -12 -9 -9 -7 2 -15 10 -17 17
-3 8 1 12 9 9 7 -2 15 -10 17 -17z m-188 -69 c0 -13 -12 -22 -22 -16 -10 6 -1
24 13 24 5 0 9 -4 9 -8z m197 -34 c-3 -8 -6 -5 -6 6 -1 11 2 17 5 13 3 -3 4
-12 1 -19z m47 -151 c22 -67 43 -126 46 -132 6 -9 75 -196 87 -237 3 -11 -8
-25 -33 -42 -49 -33 -59 -23 -14 15 36 31 32 38 -10 14 -32 -18 -54 -19 -43
-2 4 6 8 32 8 57 0 45 0 45 -32 42 -41 -5 -43 6 -3 19 33 12 39 26 15 35 -8 4
-15 11 -15 18 0 6 -15 21 -33 34 -17 12 -26 22 -19 22 8 0 9 5 3 18 -14 26
-38 91 -54 147 -8 28 -18 60 -22 73 -6 20 -3 22 29 22 20 0 36 5 36 10 0 6 3
10 8 10 4 0 25 -55 46 -123z m-204 43 c0 -23 -5 -30 -19 -30 -11 0 -21 -6 -23
-12 -3 -8 -10 -4 -17 11 -11 19 -11 25 0 32 21 13 29 11 23 -8 -5 -15 -3 -15
10 1 9 11 16 23 16 28 0 4 2 8 5 8 3 0 5 -13 5 -30z m32 -22 c-8 -8 -9 -4 -5
13 4 13 8 18 11 10 2 -7 -1 -18 -6 -23z m-122 -8 c8 -5 11 -12 7 -16 -3 -4
-13 -1 -22 6 -12 10 -15 10 -15 0 0 -8 -3 -11 -6 -7 -7 7 4 27 14 27 4 0 14
-4 22 -10z m-2813 -6 c-3 -3 -12 -4 -19 -1 -8 3 -5 6 6 6 11 1 17 -2 13 -5z
m2933 -54 c6 -11 9 -20 7 -20 -2 0 -14 9 -27 20 -18 16 -19 20 -7 20 9 0 21
-9 27 -20z m-57 -6 c7 -7 -44 -114 -55 -114 -11 0 -10 8 6 38 8 15 17 39 21
55 5 26 15 34 28 21z m117 -81 c0 -19 -3 -24 -10 -17 -6 6 -8 18 -4 27 9 24
14 21 14 -10z m-110 -39 c-6 -14 -8 -30 -4 -35 8 -14 -5 -29 -21 -22 -20 7
-19 20 6 54 25 36 32 37 19 3z m-2455 6 c3 -5 1 -10 -4 -10 -6 0 -11 5 -11 10
0 6 2 10 4 10 3 0 8 -4 11 -10z m740 0 c-3 -5 -11 -10 -16 -10 -6 0 -7 5 -4
10 3 6 11 10 16 10 6 0 7 -4 4 -10z m1805 -75 c0 -7 -6 -15 -13 -18 -10 -4
-13 8 -13 44 l0 49 13 -31 c7 -17 13 -37 13 -44z m-208 -21 c-3 -17 -8 -22
-15 -15 -7 7 -6 15 3 26 17 20 18 19 12 -11z m67 -50 c-8 -10 -8 -14 0 -14 6
0 11 -7 11 -15 0 -20 -10 -19 -26 3 -18 23 -17 59 1 66 8 3 16 13 17 23 0 10
3 3 5 -15 3 -18 -1 -40 -8 -48z m-1179 54 c0 -10 2 -10 9 0 7 12 12 12 30 1
11 -8 21 -17 21 -20 0 -9 -40 -16 -62 -11 -19 4 -26 42 -8 42 6 0 10 -6 10
-12z m1298 -77 c-15 -5 -21 7 -13 26 7 17 8 17 15 -2 4 -11 3 -22 -2 -24z
m-148 -25 c0 -8 -7 -16 -15 -20 -17 -6 -18 -4 -9 18 8 20 24 21 24 2z m-38
-81 c-2 -25 -8 -42 -13 -39 -12 7 -11 26 1 58 13 36 16 33 12 -19z m511 -24
c10 -19 8 -25 -8 -37 -10 -8 -21 -11 -24 -8 -3 3 1 9 8 13 19 12 4 51 -20 51
-24 0 -24 8 -2 32 17 19 18 19 26 -4 5 -13 14 -34 20 -47z m-33 -5 c0 -3 -4
-8 -10 -11 -5 -3 -10 -1 -10 4 0 6 5 11 10 11 6 0 10 -2 10 -4z m-1450 -21 c0
-9 -9 -15 -25 -15 -31 0 -33 17 -2 23 12 2 23 5 25 6 1 0 2 -6 2 -14z m200
-10 c41 -21 37 -35 -7 -28 -46 7 -45 6 -37 27 8 20 8 20 44 1z m-92 -13 c3
-10 -7 -12 -39 -10 -24 2 -44 9 -47 16 -3 10 7 12 39 10 24 -2 44 -9 47 -16z
m598 -29 c-10 -10 -19 5 -10 18 6 11 8 11 12 0 2 -7 1 -15 -2 -18z m224 -12
c0 -14 -18 -23 -30 -16 -6 4 -8 11 -5 16 8 12 35 12 35 0z m310 -1 c0 -5 -8
-10 -17 -10 -15 0 -16 2 -3 10 19 12 20 12 20 0z m-484 -11 c3 -6 1 -16 -6
-22 -10 -9 -12 -8 -7 5 3 9 1 19 -6 22 -9 3 -9 5 0 5 6 1 15 -4 19 -10z m-33
-23 c6 -16 -2 -28 -14 -20 -12 7 -11 34 0 34 5 0 11 -6 14 -14z m-386 -36 c3
-11 11 -20 18 -20 7 0 20 -15 29 -34 9 -19 22 -36 28 -38 7 -3 14 -32 16 -74
l4 -69 -32 -14 c-27 -11 -33 -11 -49 3 -11 10 -16 26 -13 44 3 22 -2 31 -22
41 -13 8 -31 11 -40 8 -8 -3 -17 -1 -20 6 -5 9 -7 9 -12 0 -3 -8 -25 -13 -53
-13 -26 0 -51 -4 -57 -10 -24 -24 -164 -24 -149 0 3 6 0 10 -7 10 -8 0 -6 5 5
11 9 5 17 16 17 23 0 8 19 24 43 36 23 12 44 25 47 29 13 16 65 31 113 31 40
0 59 6 82 25 37 30 45 31 52 5z m703 -2 c0 -19 -2 -20 -10 -8 -13 19 -13 30 0
30 6 0 10 -10 10 -22z m-330 -8 c0 -5 -5 -10 -11 -10 -5 0 -7 5 -4 10 3 6 8
10 11 10 2 0 4 -4 4 -10z m161 -17 c-8 -15 -10 -15 -11 -2 0 17 10 32 18 25 2
-3 -1 -13 -7 -23z m-147 -39 c23 -9 20 -23 -4 -17 -11 3 -20 9 -20 14 0 11 3
11 24 3z m-809 -114 c3 -5 1 -10 -4 -10 -6 0 -11 5 -11 10 0 6 2 10 4 10 3 0
8 -4 11 -10z m-782 -110 c15 -52 40 -167 57 -255 17 -88 35 -176 40 -195 5
-19 12 -65 16 -103 6 -55 4 -67 -8 -67 -8 0 -15 6 -15 13 -1 6 -19 104 -42
217 -53 268 -90 503 -77 489 2 -2 15 -47 29 -99z m716 40 c0 -11 -3 -10 -14 4
-8 11 -15 29 -15 40 1 19 2 19 15 -4 8 -14 14 -32 14 -40z m-29 10 c0 -5 -5
-10 -11 -10 -5 0 -7 5 -4 10 3 6 8 10 11 10 2 0 4 -4 4 -10z m1060 -41 c0 -5
-4 -9 -10 -9 -5 0 -10 7 -10 16 0 8 5 12 10 9 6 -3 10 -10 10 -16z m-410 -34
c8 -21 16 -25 50 -25 37 0 41 -2 38 -22 -2 -18 -11 -24 -35 -26 -34 -3 -42
-19 -21 -40 9 -9 7 -12 -10 -12 -23 0 -28 -9 -14 -26 4 -5 -2 0 -12 11 -13 14
-20 16 -23 7 -3 -6 -9 -10 -13 -7 -5 3 -7 12 -3 20 3 9 -1 15 -11 15 -9 0 -16
-3 -16 -8 0 -8 -73 -42 -90 -42 -9 0 -14 -14 -11 -32 2 -13 -34 -9 -48 5 -10
10 -11 9 -6 -5 9 -23 -21 -36 -67 -31 -26 4 -35 9 -31 19 3 8 0 14 -6 14 -6 0
-11 -8 -11 -17 0 -13 -3 -14 -12 -5 -15 15 16 52 44 52 12 0 22 9 25 21 4 12
11 18 20 15 7 -3 16 1 19 9 4 8 24 20 45 25 21 6 39 15 39 20 0 15 41 32 94
39 46 6 51 9 48 29 -4 30 6 28 18 -3z m-2313 -127 c-3 -8 -6 -5 -6 6 -1 11 2
17 5 13 3 -3 4 -12 1 -19z m53 1 c0 -11 -4 -17 -10 -14 -5 3 -10 13 -10 21 0
8 5 14 10 14 6 0 10 -9 10 -21z m878 -332 c14 -40 15 -57 3 -57 -5 0 -7 9 -4
19 3 11 -4 28 -16 40 -24 24 -26 31 -8 31 7 0 18 -15 25 -33z m12 -87 c0 -5
-2 -10 -4 -10 -3 0 -8 5 -11 10 -3 6 -1 10 4 10 6 0 11 -4 11 -10z m-90 -10
c0 -5 -2 -10 -4 -10 -3 0 -8 5 -11 10 -3 6 -1 10 4 10 6 0 11 -4 11 -10z"/>
<path d="M1432 1510 c0 -14 2 -19 5 -12 2 6 2 18 0 25 -3 6 -5 1 -5 -13z"/>
<path d="M1440 1459 c0 -5 5 -7 10 -4 6 3 10 8 10 11 0 2 -4 4 -10 4 -5 0 -10
-5 -10 -11z"/>
<path d="M2300 800 c0 -5 5 -10 10 -10 6 0 10 5 10 10 0 6 -4 10 -10 10 -5 0
-10 -4 -10 -10z"/>
<path d="M2695 2740 c3 -5 11 -10 16 -10 6 0 7 5 4 10 -3 6 -11 10 -16 10 -6
0 -7 -4 -4 -10z"/>
<path d="M3675 1998 c-19 -22 -54 -80 -74 -125 -7 -15 -19 -23 -35 -23 -18 0
-23 -4 -19 -18 3 -14 -5 -23 -29 -35 -18 -9 -31 -17 -28 -17 54 -11 160 4 160
23 0 4 12 12 26 17 19 8 24 15 19 30 -3 10 -1 29 5 40 9 17 8 25 -5 40 -9 10
-12 20 -7 21 11 5 24 69 14 69 -4 0 -16 -10 -27 -22z"/>
<path d="M55 1700 c4 -6 11 -8 16 -5 14 9 11 15 -7 15 -8 0 -12 -5 -9 -10z"/>
<path d="M103 1693 c-41 -8 -24 -21 21 -16 29 4 55 0 77 -11 39 -20 39 -20 39
-1 0 24 -76 40 -137 28z"/>
<path d="M250 1671 c0 -6 5 -13 10 -16 6 -3 10 1 10 9 0 9 -4 16 -10 16 -5 0
-10 -4 -10 -9z"/>
<path d="M290 1676 c0 -2 7 -9 15 -16 9 -7 15 -8 15 -2 0 5 -7 12 -15 16 -8 3
-15 4 -15 2z"/>
<path d="M88 1653 c7 -3 16 -2 19 1 4 3 -2 6 -13 5 -11 0 -14 -3 -6 -6z"/>
<path d="M340 1651 c0 -6 4 -13 10 -16 6 -3 7 1 4 9 -7 18 -14 21 -14 7z"/>
<path d="M168 1623 c6 -2 18 -2 25 0 6 3 1 5 -13 5 -14 0 -19 -2 -12 -5z"/>
<path d="M356 1575 c4 -8 10 -15 15 -15 4 0 6 7 3 15 -4 8 -10 15 -15 15 -4 0
-6 -7 -3 -15z"/>
<path d="M222 330 c0 -14 2 -19 5 -12 2 6 2 18 0 25 -3 6 -5 1 -5 -13z"/>
<path d="M562 220 c0 -14 2 -19 5 -12 2 6 2 18 0 25 -3 6 -5 1 -5 -13z"/>
<path d="M571 168 c-1 -15 4 -59 11 -98 12 -67 13 -70 40 -70 32 0 32 -1 14
35 -9 17 -16 22 -18 13 -3 -7 -11 14 -17 47 -7 33 -17 69 -21 80 -8 18 -9 17
-9 -7z"/>
<path d="M931 134 c0 -11 3 -14 6 -6 3 7 2 16 -1 19 -3 4 -6 -2 -5 -13z"/>
</g>
</svg>
